<?xml version="1.0" encoding="utf-8"?>
<!-- Generator: Adobe Illustrator 18.1.1, SVG Export Plug-In . SVG Version: 6.00 Build 0)  -->
<svg version="1.1" id="图层_1" xmlns="http://www.w3.org/2000/svg" xmlns:xlink="http://www.w3.org/1999/xlink" x="0px" y="0px"
	 viewBox="94 97 800 600" enable-background="new 94 97 800 600" xml:space="preserve">
<rect x="94" y="97" width="800" height="600"/>
<title>Produce by Acme CAD Converter</title>
<desc>Produce by Acme CAD Converter</desc>
<path fill="none" stroke="#FFFFFF" stroke-width="0.5" d="M337.1,325.7h339.2"/>
<path fill="none" stroke="#FFFFFF" stroke-width="0.5" d="M676.3,353.1H337.1"/>
<path fill="none" stroke="#FFFFFF" stroke-width="0.5" d="M337.1,380.6h274.9"/>
<path fill="none" stroke="#FFFFFF" stroke-width="0.5" d="M611.9,408.1H337.1"/>
<path fill="none" stroke="#FFFFFF" stroke-width="0.5" d="M337.1,435.6h274.9"/>
<path fill="none" stroke="#FFFFFF" stroke-width="0.5" d="M585.2,463.1H337.1"/>
<path fill="none" stroke="#FFFFFF" stroke-width="0.5" d="M337.1,490.6h274.9"/>
<path fill="none" stroke="#FFFFFF" stroke-width="0.5" d="M611.9,518.1H337.1"/>
<path fill="none" stroke="#FFFFFF" stroke-width="0.5" d="M337.1,408.1H134.4"/>
<path fill="none" stroke="#FFFFFF" stroke-width="0.5" d="M337.1,325.7l-79.9,82.5"/>
<path fill="none" stroke="#FFFFFF" stroke-width="0.5" d="M337.1,353.1h-26.6"/>
<path fill="none" stroke="#FFFFFF" stroke-width="0.5" d="M337.1,380.6h-53.3"/>
<path fill="none" stroke="#FFFFFF" stroke-width="0.5" d="M611.9,380.6h116.2"/>
<path fill="none" stroke="#FFFFFF" stroke-width="0.5" d="M611.9,408.1l84.7-27.5"/>
<path fill="none" stroke="#FFFFFF" stroke-width="0.5" d="M337.1,463.1H134.4"/>
<path fill="none" stroke="#FFFFFF" stroke-width="0.5" d="M257.1,463.1l79.9,55"/>
<path fill="none" stroke="#FFFFFF" stroke-width="0.5" d="M337.1,490.6h-40"/>
<path fill="none" stroke="#FFFFFF" stroke-width="0.5" d="M337.1,435.6l-28.4,27.5"/>
<path fill="none" stroke="#FFFFFF" stroke-width="0.5" d="M611.9,490.6h28.6"/>
<path fill="none" stroke="#FFFFFF" stroke-width="0.5" d="M640.5,490.6l-28.6,27.5"/>
<path fill="none" stroke="#FFFFFF" stroke-width="0.5" d="M640.5,490.6l28.6-27.5"/>
<path fill="none" stroke="#FFFFFF" stroke-width="0.5" d="M669.1,463.1h59"/>
<path fill="none" stroke="#FFFFFF" stroke-width="0.5" d="M611.9,435.6h116.2"/>
<path fill="none" stroke="#FFFFFF" stroke-width="0.5" d="M696.6,435.6l-84.7-27.5"/>
<path fill="none" stroke="#FFFFFF" stroke-width="0.5" d="M676.3,325.7v-9.4"/>
<path fill="none" stroke="#FFFFFF" stroke-width="0.5" d="M676.3,316.3h3.7"/>
<path fill="none" stroke="#FFFFFF" stroke-width="0.5" d="M679.9,316.3v18.3"/>
<path fill="none" stroke="#FFFFFF" stroke-width="0.5" d="M679.9,334.6h-3.7"/>
<path fill="none" stroke="#FFFFFF" stroke-width="0.5" d="M676.3,334.6v-9"/>
<path fill="none" stroke="#FFFFFF" stroke-width="0.5" d="M676.4,352.2v-9.4"/>
<path fill="none" stroke="#FFFFFF" stroke-width="0.5" d="M676.4,342.9h3.7"/>
<path fill="none" stroke="#FFFFFF" stroke-width="0.5" d="M680,342.9v18.3"/>
<path fill="none" stroke="#FFFFFF" stroke-width="0.5" d="M680,361.2h-3.7"/>
<path fill="none" stroke="#FFFFFF" stroke-width="0.5" d="M676.4,361.2v-9"/>
<path fill="none" stroke="#FFFFFF" stroke-width="0.5" d="M585.2,463.1h55.3"/>
<path fill="none" stroke="#FFFFFF" stroke-width="0.5" d="M640.5,463.1l28.5-27.5"/>
<path fill="none" stroke="#FFFFFF" stroke-width="0.5" d="M605.4,305.8v7 M605.4,312.8l-0.4,1.3 M604.9,314.1l-0.4,0.4 M604.5,314.5
	l-0.9,0.4 M603.6,314.9h-0.9 M602.8,314.9l-0.9-0.4 M601.9,314.5l-0.4-0.4 M601.4,314.1l-0.4-1.3 M601,312.8v-0.9 M608,307.5
	l0.9-0.4 M608.9,307.1l1.3-1.3 M610.2,305.8v9.2"/>
<path fill="none" stroke="#FFFFFF" stroke-width="0.5" d="M604.8,334.7v7 M604.8,341.7l-0.4,1.3 M604.4,343l-0.4,0.4 M604,343.4
	l-0.9,0.4 M603.1,343.9h-0.9 M602.2,343.9l-0.9-0.4 M601.4,343.4l-0.4-0.4 M600.9,343l-0.4-1.3 M600.5,341.7v-0.9 M607.9,336.9v-0.4
	 M607.9,336.4l0.4-0.9 M608.3,335.6l0.4-0.4 M608.8,335.1l0.9-0.4 M609.7,334.7h1.8 M611.4,334.7l0.9,0.4 M612.3,335.1l0.4,0.4
	 M612.7,335.6l0.4,0.9 M613.1,336.4v0.9 M613.1,337.3l-0.4,0.9 M612.7,338.2l-0.9,1.3 M611.8,339.5l-4.4,4.4 M607.5,343.9h6.1"/>
<path fill="none" stroke="#FFFFFF" stroke-width="0.5" d="M604.8,364.2v7 M604.8,371.2l-0.4,1.3 M604.4,372.5l-0.4,0.4 M604,372.9
	l-0.9,0.4 M603.1,373.4h-0.9 M602.2,373.4l-0.9-0.4 M601.4,372.9l-0.4-0.4 M600.9,372.5l-0.4-1.3 M600.5,371.2v-0.9 M608.3,364.2
	h4.8 M613.1,364.2l-2.6,3.5 M610.5,367.7h1.3 M611.8,367.7l0.9,0.4 M612.7,368.1l0.4,0.4 M613.1,368.6l0.4,1.3 M613.6,369.9v0.9
	 M613.6,370.8l-0.4,1.3 M613.1,372.1l-0.9,0.9 M612.3,372.9l-1.3,0.4 M611,373.4h-1.3 M609.7,373.4l-1.3-0.4 M608.3,372.9l-0.4-0.4
	 M607.9,372.5l-0.4-0.9"/>
<path fill="none" stroke="#FFFFFF" stroke-width="0.5" d="M603.4,390.5v7 M603.4,397.5l-0.4,1.3 M603,398.8l-0.4,0.4 M602.6,399.2
	l-0.9,0.4 M601.7,399.6h-0.9 M600.8,399.6l-0.9-0.4 M600,399.2l-0.4-0.4 M599.5,398.8l-0.4-1.3 M599.1,397.5v-0.9 M610.4,390.5
	l-4.4,6.1 M606.1,396.6h6.5 M610.4,390.5v9.2"/>
<path fill="none" stroke="#FFFFFF" stroke-width="0.5" d="M602.5,418.6v7 M602.5,425.5l-0.4,1.3 M602,426.9l-0.4,0.4 M601.6,427.3
	l-0.9,0.4 M600.7,427.7h-0.9 M599.8,427.7l-0.9-0.4 M599,427.3l-0.4-0.4 M598.5,426.9l-0.4-1.3 M598.1,425.5v-0.9 M610.3,418.6H606
	 M606,418.6l-0.4,3.9 M605.5,422.5l0.4-0.4 M606,422l1.3-0.4 M607.3,421.6h1.3 M608.6,421.6l1.3,0.4 M609.9,422l0.9,0.9
	 M610.8,422.9l0.4,1.3 M611.2,424.2v0.9 M611.2,425.1l-0.4,1.3 M610.8,426.4l-0.9,0.9 M609.9,427.3l-1.3,0.4 M608.6,427.7h-1.3
	 M607.3,427.7l-1.3-0.4 M606,427.3l-0.4-0.4 M605.5,426.9l-0.4-0.9"/>
<path fill="none" stroke="#FFFFFF" stroke-width="0.5" d="M601.7,445.8v7 M601.7,452.8l-0.4,1.3 M601.3,454.1l-0.4,0.4 M600.8,454.5
	l-0.9,0.4 M599.9,455h-0.9 M599.1,455l-0.9-0.4 M598.2,454.5l-0.4-0.4 M597.8,454.1l-0.4-1.3 M597.3,452.8v-0.9 M609.5,447.1
	l-0.4-0.9 M609.1,446.2l-1.3-0.4 M607.8,445.8h-0.9 M606.9,445.8l-1.3,0.4 M605.6,446.2l-0.9,1.3 M604.7,447.5l-0.4,2.2
	 M604.3,449.7v2.2 M604.3,451.9l0.4,1.8 M604.7,453.7l0.9,0.9 M605.6,454.5l1.3,0.4 M606.9,455h0.4 M607.4,455l1.3-0.4 M608.7,454.5
	l0.9-0.9 M609.5,453.7l0.4-1.3 M610,452.4v-0.4 M610,451.9l-0.4-1.3 M609.5,450.6l-0.9-0.9 M608.7,449.7l-1.3-0.4 M607.4,449.3h-0.4
	 M606.9,449.3l-1.3,0.4 M605.6,449.7l-0.9,0.9 M604.7,450.6l-0.4,1.3"/>
<path fill="none" stroke="#FFFFFF" stroke-width="0.5" d="M601.8,471.7v7 M601.8,478.7l-0.4,1.3 M601.4,480l-0.4,0.4 M601,480.4
	l-0.9,0.4 M600.1,480.9h-0.9 M599.2,480.9l-0.9-0.4 M598.4,480.4l-0.4-0.4 M597.9,480l-0.4-1.3 M597.5,478.7v-0.9 M604.5,471.7h6.1
	 M610.6,471.7l-4.4,9.2"/>
<path fill="none" stroke="#FFFFFF" stroke-width="0.5" d="M601.1,500v7 M601.1,506.9l-0.4,1.3 M600.7,508.3l-0.4,0.4 M600.3,508.7
	l-0.9,0.4 M599.4,509.1h-0.9 M598.5,509.1l-0.9-0.4 M597.6,508.7l-0.4-0.4 M597.2,508.3l-0.4-1.3 M596.8,506.9v-0.9 M605.9,500
	l-1.3,0.4 M604.6,500.4l-0.4,0.9 M604.2,501.3v0.9 M604.2,502.1l0.4,0.9 M604.6,503l0.9,0.4 M605.5,503.5l1.7,0.4 M607.2,503.9
	l1.3,0.4 M608.5,504.3l0.9,0.9 M609.4,505.2l0.4,0.9 M609.9,506.1v1.3 M609.9,507.4l-0.4,0.9 M609.4,508.3l-0.4,0.4 M609,508.7
	l-1.3,0.4 M607.7,509.1h-1.8 M605.9,509.1l-1.3-0.4 M604.6,508.7l-0.4-0.4 M604.2,508.3l-0.4-0.9 M603.8,507.4v-1.3 M603.8,506.1
	l0.4-0.9 M604.2,505.2l0.9-0.9 M605.1,504.3l1.3-0.4 M606.4,503.9l1.7-0.4 M608.1,503.5l0.9-0.4 M609,503l0.4-0.9 M609.4,502.1v-0.9
	 M609.4,501.3l-0.4-0.9 M609,500.4l-1.3-0.4 M607.7,500h-1.8"/>
<g>
	<text transform="matrix(1 0 0 1 265 276)" fill="#FFFFFF" font-family="'BigruixianBoldkGBV1.0'" font-size="18">兰州西机务段天水运用车间整备站场图</text>
</g>
<text transform="matrix(1 0 0 1 142 429.1402)" fill="#FFFFFF" font-family="'BigruixianBoldkGBV1.0'" font-size="18">东</text>
<text transform="matrix(1 0 0 1 709 429.1401)" fill="#FFFFFF" font-family="'BigruixianBoldkGBV1.0'" font-size="18">西</text>
</svg>
